<?xml version="1.0" encoding="UTF-8" standalone="no"?>
<!-- Created with Inkscape (http://www.inkscape.org/) -->

<svg
   version="1.1"
   id="svg1"
   width="152"
   height="151.67999"
   viewBox="0 0 152 151.67999"
   sodipodi:docname="logo_inskape.svg"
   inkscape:export-filename="corengineer_logo.png"
   inkscape:export-xdpi="20000"
   inkscape:export-ydpi="20000"
   inkscape:version="1.3.1 (9b9bdc1480, 2023-11-25, custom)"
   xmlns:inkscape="http://www.inkscape.org/namespaces/inkscape"
   xmlns:sodipodi="http://sodipodi.sourceforge.net/DTD/sodipodi-0.dtd"
   xmlns="http://www.w3.org/2000/svg"
   xmlns:svg="http://www.w3.org/2000/svg">
  <defs
     id="defs1" />
  <sodipodi:namedview
     id="namedview1"
     pagecolor="#ffffff"
     bordercolor="#000000"
     borderopacity="0.25"
     inkscape:showpageshadow="2"
     inkscape:pageopacity="0.0"
     inkscape:pagecheckerboard="0"
     inkscape:deskcolor="#d1d1d1"
     showgrid="false"
     showguides="true"
     inkscape:zoom="4"
     inkscape:cx="79.25"
     inkscape:cy="104.75"
     inkscape:window-width="1920"
     inkscape:window-height="1043"
     inkscape:window-x="0"
     inkscape:window-y="0"
     inkscape:window-maximized="1"
     inkscape:current-layer="layer2">
    <inkscape:grid
       id="grid1"
       units="px"
       originx="0"
       originy="0"
       spacingx="1"
       spacingy="0.99999998"
       empcolor="#0099e5"
       empopacity="0.30196078"
       color="#0099e5"
       opacity="0.14901961"
       empspacing="5"
       dotted="false"
       gridanglex="30"
       gridanglez="30"
       visible="false" />
  </sodipodi:namedview>
  <g
     inkscape:groupmode="layer"
     id="layer2"
     inkscape:label="logo"
     style="display:inline">
    <path
       style="display:inline;opacity:1;fill:#fc944b;fill-opacity:1;stroke-width:1.10593"
       d="m 129.2207,107.875 a 45,45 0 0 1 -30.675778,13.01172 45,45 0 0 1 -22.121094,-5.4375 H 34.222656 a 75,75 0 0 0 0.0059,0.008 h -8.833985 v 8.05664 H 40.091837 A 75,75 0 0 0 99.048868,150.883 75,75 0 0 0 150.5059,129.21113 l -21.09961,-21.17774 -0.002,-0.002 c -0.0219,-0.0127 -0.044,-0.0255 -0.0625,-0.043 -0.0215,-0.0203 -0.019,-0.0362 -0.0274,-0.0547 -0.0256,-0.016 -0.0504,-0.0326 -0.0762,-0.0488 -0.0114,-0.006 -0.0137,-0.008 -0.0176,-0.01 z"
       id="path73"
       inkscape:label="c_bot" />
    <path
       id="path69"
       style="display:inline;opacity:1;fill:#fc944b;fill-opacity:1;stroke-width:1.10593"
       inkscape:label="ruta"
       d="M 21.605469 103.68945 A 4.1849647 4.1239438 0 0 0 17.496094 107.88477 A 4.1849647 4.1239438 0 0 0 21.751953 111.93555 A 4.1849647 4.1239438 0 0 0 25.375 109.74609 L 67.517578 109.74609 L 67.517578 109.08008 A 43.765007 44.925968 0 0 1 64.410156 105.99609 L 25.404297 105.99609 A 4.1849647 4.1239438 0 0 0 21.605469 103.68945 z M 21.492188 105.66016 A 2.1320236 2.2520039 0 0 1 23.662109 107.87109 L 23.662109 107.87695 A 2.1320236 2.2520039 0 0 1 21.566406 110.16406 A 2.1320236 2.2520039 0 0 1 19.398438 107.95117 A 2.1320236 2.2520039 0 0 1 21.492188 105.66016 z " />
    <path
       id="path68"
       style="display:inline;opacity:1;fill:#fe4543;fill-opacity:1;stroke-width:1.10593"
       d="m 26.414062,53.410156 a 75,75 0 0 0 -3.361328,18.001953 h 14.710938 a 6.6000347,6.7876248 0 0 1 4.792969,-2.332031 6.6000347,6.7876248 0 0 1 6.71875,6.660156 v 0.01563 a 6.6000347,6.7876248 0 0 1 -6.488282,6.896485 6.6000347,6.7876248 0 0 1 -4.691406,-1.900391 H 23.125 a 75,75 0 0 0 3.1875,17.789063 h 32.646484 a 45,45 0 0 1 -6.162109,-21.86524 45,45 0 0 1 6.085937,-23.265625 z m 16.074219,19.429688 a 3.0412598,3.0267334 0 0 0 -2.986328,3.078125 3.0412598,3.0267334 0 0 0 3.091797,2.974609 3.0412598,3.0267334 0 0 0 2.990234,-3.076172 l -0.002,-0.0059 a 3.0412598,3.0267334 0 0 0 -3.09375,-2.970703 z"
       inkscape:label="c_mid" />
    <path
       style="display:inline;opacity:1;fill:#ffbe58;fill-opacity:1;stroke-width:1.10593"
       d="M 97.710938,35.619141 A 40.48584,40.51123 0 0 0 57.958984,76.828125 40.48584,40.51123 0 0 0 99.117188,116.63086 40.48584,40.51123 0 0 0 138.91992,75.46875 l -0.002,-0.0957 A 40.48584,40.51123 0 0 0 97.710938,35.619141 Z"
       id="path61"
       inkscape:label="o_center" />
    <path
       id="path60"
       style="display:inline;opacity:1;fill:#fc944b;fill-opacity:1;stroke-width:1.10593"
       inkscape:label="c_top"
       d="M 96.443359,0.90625 A 75,75 0 0 0 45.378906,22.390625 H 18.482422 v 7.060547 h 27.029297 v -0.05273 h 4.394531 a 6.0080566,6.2344971 0 0 1 4.667969,-2.632813 6.0080566,6.2344971 0 0 1 6.115234,6.119141 v 0.01367 a 6.0080566,6.2344971 0 0 1 -5.90625,6.335937 6.0080566,6.2344971 0 0 1 -4.714844,-2.40625 h -1.169921 v -0.002 H 0.58398438 v 6.677734 H 30.341797 a 75,75 0 0 0 -0.01367,0.02539 h 36.306641 v 0.09375 a 45,45 0 0 1 30.347654,-12.72261 45,45 0 0 1 33.062498,13.857421 c 0.004,-0.006 0.007,-0.0087 0.0137,-0.01758 0.014,-0.01988 0.0269,-0.03102 0.0371,-0.0332 0.003,-6.32e-4 0.003,0.0108 0.006,0.01172 0.0199,-0.01117 0.0433,-0.01826 0.0625,-0.02539 -0.008,-0.0089 -0.0152,-0.0184 -0.0234,-0.02734 l 20.07422,-20.351563 c 0.19812,-0.329402 0.41484,-0.647924 0.65625,-0.949219 0.0304,-0.03731 0.0631,-0.07241 0.0937,-0.109375 A 75,75 0 0 0 96.443359,0.90625 Z M 54.646484,29.583984 a 3.5063477,3.4020996 0 0 0 -3.443359,3.460938 3.5063477,3.4020996 0 0 0 3.564453,3.341797 3.5063477,3.4020996 0 0 0 3.447266,-3.457031 v -0.0078 a 3.5063477,3.4020996 0 0 0 -3.56836,-3.337891 z" />
  </g>
</svg>
